<svg width="101" height="100" viewBox="0 0 101 100" fill="none" xmlns="http://www.w3.org/2000/svg">
<rect x="2.16663" y="1.5" width="97" height="97" rx="13.5" fill="#5B572B" stroke="#EFD81D" stroke-width="3"/>
<rect x="2.16663" y="1.5" width="97" height="97" rx="13.5" fill="#5B572B" stroke="#EFD81D" stroke-width="3"/>
<g clip-path="url(#clip0_3_755)">
<path d="M33.6666 27.25C30.3529 27.25 27.6666 29.9363 27.6666 33.25V66.75C27.6666 70.0637 30.3529 72.75 33.6666 72.75H67.6666C70.9803 72.75 73.6666 70.0637 73.6666 66.75V33.25C73.6666 29.9363 70.9803 27.25 67.6666 27.25H33.6666ZM52.6997 62.7359C52.6997 67.1641 50.0711 69.1852 46.2412 69.1852C43.7118 69.1852 41.9614 68.2409 40.8017 66.8958C40.0853 66.0649 40.4729 64.8446 41.4149 64.2823C42.4355 63.6731 43.6228 64.1686 44.567 64.8906C44.9547 65.1872 45.4278 65.3664 46.0564 65.3664C47.4733 65.3664 48.3769 64.818 48.3769 62.675V50.3028C48.3769 49.1091 49.3446 48.1414 50.5383 48.1414C51.732 48.1414 52.6997 49.1091 52.6997 50.3028V62.7359ZM62.9264 69.1852C59.8713 69.1852 57.6368 68.0912 56.1865 66.4762C55.4327 65.6367 55.8215 64.378 56.8013 63.8186C57.7897 63.2542 58.9992 63.6368 59.867 64.3732C60.6184 65.011 61.5628 65.407 62.834 65.407C64.6206 65.407 65.7706 64.5234 65.7706 63.2945C65.7706 61.832 64.6001 61.3141 62.6184 60.4508L61.5403 59.9937C58.4189 58.6836 56.355 57.0281 56.355 53.5445C56.355 50.3352 58.8296 47.8977 62.68 47.8977C64.7714 47.8977 66.4121 48.4432 67.7011 49.793C68.4343 50.5607 68.1139 51.7676 67.217 52.3356C66.2572 52.9434 65.0619 52.469 64.0593 51.9349C63.6577 51.721 63.2047 51.625 62.6698 51.625C61.4068 51.625 60.6059 52.4172 60.6059 53.4531C60.6059 54.7328 61.4068 55.2508 63.2653 56.0531L64.3434 56.5102C68.0193 58.0641 70.0831 59.6586 70.0831 63.2336C70.0831 67.0727 67.0233 69.1852 62.9264 69.1852Z" fill="#EFD81D"/>
</g>
<defs>
<clipPath id="clip0_3_755">
<rect width="46" height="52" fill="white" transform="translate(27.6666 24)"/>
</clipPath>
</defs>
</svg>
